# xmcd CD database file
#
# Track frame offsets:
#	150
#	29260
#	50419
#	67021
#	99161
#	121786
#	149634
#	170011
#	189107
#	210391
#
# Disc length: 3116 seconds
#
# Revision: 2
# Processed by: cddbd v1.4PL0 Copyright (c) Steve Scherf et al.
# Submitted via: CDex 1.40Release
#
DISCID=860c2a0a
DTITLE=Jupiter Coyote - Waxing Moon
DYEAR=2001
DGENRE=
TTITLE0=Changes
TTITLE1=Somehow
TTITLE2=Becky
TTITLE3=Spiral
TTITLE4=Pawn
TTITLE5=Casually Moves On
TTITLE6=Rumplestiltskin
TTITLE7=Parkway Blue Blinder
TTITLE8=Train Song
TTITLE9=Plough and the Star
EXTD=YEAR: 2001
EXTT0=
EXTT1=
EXTT2=
EXTT3=
EXTT4=
EXTT5=
EXTT6=
EXTT7=
EXTT8=
EXTT9=
PLAYORDER=
